Coordinates
version=1
nRows=16
nColumns=42
inDegrees=yes

Units are S.I. units (second, meters, Newtons, ...)
If the header above contains a line with 'inDegrees', this indicates whether rotational values are in degrees (yes) or radians (no).

endheader
time	pelvis_tilt	pelvis_list	pelvis_rotation	pelvis_tx	pelvis_ty	pelvis_tz	hip_flexion_r	hip_adduction_r	hip_rotation_r	knee_angle_r	knee_adduction_r	knee_angle_r_beta	ankle_angle_r	subtalar_angle_r	mtp_angle_r	hip_flexion_l	hip_adduction_l	hip_rotation_l	knee_angle_l	knee_adduction_l	knee_angle_l_beta	ankle_angle_l	subtalar_angle_l	mtp_angle_l	lumbar_extension	lumbar_bending	lumbar_rotation	arm_flex_r	arm_add_r	arm_rot_r	elbow_flex_r	pro_sup_r	wrist_flex_r	wrist_dev_r	arm_flex_l	arm_add_l	arm_rot_l	elbow_flex_l	pro_sup_l	wrist_flex_l	wrist_dev_l
      0.40000000	      9.07860617	      3.49031463	     -2.37249128	     -1.55635078	      0.90045272	      0.17102466	      3.76590297	     -7.88315227	     -0.34010554	     69.55364037	      5.52570713	      1.21394003	      0.43833954	    -11.64352649	     -9.61297258	      7.82658485	      7.94263633	    -23.49630132	     31.95004886	     -6.01963478	      0.55763355	     22.62073837	     22.90445876	     -9.61297258	    -21.54207857	     -2.72534173	     -1.04120806	      4.17763462	     -8.22716318	    -15.10502600	     29.58261464	     90.00000001	      0.00000000	      0.00000000	     -3.98328127	     -6.61475952	    -26.85394743	     37.60358581	     90.00000001	      0.00000000	      0.00000000
      0.41000000	      9.19905414	      3.34589577	     -2.49156001	     -1.54913820	      0.90131929	      0.17108867	      5.59241625	     -7.48284841	     -0.26286266	     70.62266181	      4.73625882	      1.23259798	      2.02362560	    -12.65605400	     -9.58108674	      6.81034137	      7.79487556	    -23.32522261	     31.46892558	     -5.70929416	      0.54923636	     22.95771159	     22.96478124	     -9.58108674	    -21.83538772	     -2.57019893	     -1.19059504	      4.05175967	     -8.37654294	    -15.21559830	     29.34441596	     90.00000001	      0.00000000	      0.00000000	     -3.64028945	     -6.75674613	    -26.59749561	     37.82864875	     90.00000001	      0.00000000	      0.00000000
      0.42000000	      9.29026645	      3.26084236	     -2.53625868	     -1.54196296	      0.90209820	      0.17097345	      7.39243508	     -7.16729746	     -0.10249429	     71.41723780	      4.17292533	      1.24646594	      3.47017952	    -13.86878747	     -9.55132890	      5.85197505	      7.75442123	    -23.14857577	     30.96304185	     -5.47902480	      0.54040703	     23.32691709	     23.12753346	     -9.55132890	    -22.08818241	     -2.45181067	     -1.42546783	      3.94010102	     -8.47167677	    -15.47579293	     29.09528564	     90.00000001	      0.00000000	      0.00000000	     -3.30746030	     -6.92447568	    -26.20711553	     38.03558458	     90.00000001	      0.00000000	      0.00000000
      0.43000000	      9.38560737	      3.12098450	     -2.52328030	     -1.53484422	      0.90289338	      0.17074682	      9.10743124	     -6.81609843	      0.12621025	     71.88388577	      3.81976271	      1.25461049	      4.53950259	    -14.77415353	     -9.52393751	      4.91100326	      7.67237068	    -22.90837082	     30.50570562	     -5.28870290	      0.53242500	     23.61261253	     23.25407221	     -9.52393751	    -22.35730546	     -2.23155633	     -1.71882971	      3.83891174	     -8.57256922	    -15.78862526	     28.94325892	     90.00000001	      0.00000000	      0.00000000	     -2.99472411	     -7.09099956	    -25.78172567	     38.21551809	     90.00000001	      0.00000000	      0.00000000
      0.44000000	      9.45104979	      3.00796602	     -2.47730574	     -1.52777145	      0.90365865	      0.17061447	     10.75530606	     -6.44506968	      0.43212922	     71.99182210	      3.59517402	      1.25649433	      5.51562655	    -15.76328890	     -9.49533464	      4.00014813	      7.61294164	    -22.58932466	     30.00499789	     -5.06704049	      0.52368601	     23.96146462	     23.42004047	     -9.49533464	    -22.59050553	     -2.06216393	     -1.98783121	      3.69993435	     -8.63883726	    -16.22614230	     28.77766123	     90.00000001	      0.00000000	      0.00000000	     -2.65851362	     -7.30943607	    -25.23320131	     38.37256820	     90.00000001	      0.00000000	      0.00000000
      0.45000000	      9.59231142	      2.86379309	     -2.37968946	     -1.52078260	      0.90458249	      0.17043544	     12.18920292	     -6.11893431	      1.07741829	     71.74421057	      3.91047796	      1.25217269	      5.84024823	    -16.83362956	     -9.41578431	      3.01843304	      7.52173933	    -22.23690278	     29.52845340	     -4.86934464	      0.51536873	     24.30205821	     23.71226203	     -9.41578431	    -22.92572136	     -1.83319144	     -2.24082833	      3.67336895	     -8.52398110	    -17.79123685	     28.61413179	     90.00000001	      0.00000000	      0.00000000	     -2.37302542	     -7.70106961	    -23.81434466	     38.54020399	     90.00000001	      0.00000000	      0.00000000
      0.46000000	      9.55571667	      2.67668285	     -2.19645291	     -1.51383529	      0.90512491	      0.17008301	     13.73935690	     -5.70129732	      1.13308009	     71.19666170	      3.68874060	      1.24261616	      6.52878390	    -16.89814990	     -9.38687288	      2.35567243	      7.39961797	    -21.86071319	     29.21330069	     -4.78508933	      0.50986828	     24.49922995	     23.64694812	     -9.38687288	    -23.05387685	     -1.51806442	     -2.60341290	      3.48267620	     -8.61790567	    -17.99907117	     28.60357271	     90.00000001	      0.00000000	      0.00000000	     -2.01379443	     -7.84685237	    -23.57461334	     38.66042984	     90.00000001	      0.00000000	      0.00000000
      0.47000000	      9.56287772	      2.46200661	     -1.94543967	     -1.50692243	      0.90573791	      0.16963531	     15.09019772	     -5.33376905	      1.15070262	     70.29910409	      3.63529136	      1.22695083	      7.10408813	    -16.91648171	     -9.35694396	      1.64691105	      7.27123742	    -21.36487915	     28.88958107	     -4.71385308	      0.50421831	     24.79863254	     23.62264099	     -9.35694396	    -23.23575770	     -1.16103815	     -2.99781552	      3.29374139	     -8.69548910	    -18.28401037	     28.61450095	     90.00000001	      0.00000000	      0.00000000	     -1.63382300	     -8.01578084	    -23.17539659	     38.73100724	     90.00000001	      0.00000000	      0.00000000
      0.48000000	      9.65053163	      2.21926896	     -1.60520267	     -1.49989874	      0.90652886	      0.16915087	     16.14034625	     -4.97722364	      1.05238081	     68.97411813	      3.62380061	      1.20382546	      7.54769547	    -16.85680131	     -9.31749032	      0.82334039	      7.06711958	    -20.80734146	     28.57079217	     -4.58145835	      0.49865439	     25.19973219	     23.66709064	     -9.31749032	    -23.48936492	     -0.74906057	     -3.41492044	      3.08807301	     -8.73493555	    -18.78421112	     28.63519710	     90.00000001	      0.00000000	      0.00000000	     -1.23618626	     -8.23560547	    -22.51975544	     38.73921851	     90.00000001	      0.00000000	      0.00000000
      0.49000000	      9.56676836	      1.99172482	     -1.29630242	     -1.49300734	      0.90686774	      0.16866351	     17.37396206	     -4.69225013	      0.90259604	     67.49244086	      3.62756729	      1.17796531	      7.84696641	    -16.42646469	     -9.28556411	      0.30271581	      6.92997329	    -20.44471717	     28.34038712	     -4.67628912	      0.49463307	     25.37789997	     23.63831307	     -9.28556411	    -23.55481473	     -0.35330213	     -3.80636353	      2.85748944	     -8.79971362	    -19.09242644	     28.72119157	     90.00000001	      0.00000000	      0.00000000	     -0.89778079	     -8.40208325	    -22.09001929	     38.84664226	     90.00000001	      0.00000000	      0.00000000
      0.50000000	      9.65486802	      1.70687499	     -0.88803746	     -1.48598783	      0.90755053	      0.16817445	     18.16786753	     -4.38789858	      0.52883036	     65.55193603	      3.59935470	      1.14409711	      8.24854856	    -15.94417139	     -9.24320731	     -0.46066141	      6.63113315	    -20.03575760	     28.10262307	     -4.62406580	      0.49048330	     25.81500259	     23.86573426	     -9.24320731	    -23.80516298	      0.11962739	     -4.20359427	      2.62914688	     -8.80780990	    -19.61697349	     28.78112592	     90.00000001	      0.00000000	      0.00000000	     -0.48977848	     -8.60364830	    -21.41278173	     38.81008134	     90.00000001	      0.00000000	      0.00000000
      0.51000000	      9.72105525	      1.41007137	     -0.51115038	     -1.47880782	      0.90806384	      0.16781910	     18.89841974	     -4.04055408	     -0.29889605	     63.36329100	      3.12799053	      1.10589805	      8.61709851	    -14.76805483	     -9.14539505	     -1.17612047	      6.25402528	    -20.05931421	     27.88581860	     -4.69860431	      0.48669935	     26.12074803	     24.71276410	     -9.14539505	    -24.00068376	      0.58191579	     -4.53683748	      2.42109629	     -8.73949168	    -20.59369960	     28.83633579	     90.00000001	      0.00000000	      0.00000000	     -0.16761261	     -8.82481426	    -20.63582196	     38.91044039	     90.00000001	      0.00000000	      0.00000000
      0.52000000	      9.43332496	      1.31954924	     -0.21365585	     -1.47195978	      0.90769837	      0.16745158	     20.13610100	     -3.98884467	     -0.32511254	     61.27150961	      3.34852912	      1.06938958	      8.89459134	    -13.94307890	     -9.11845747	     -1.39744817	      6.24968542	    -19.86407238	     27.74165784	     -4.90031962	      0.48418327	     26.26990187	     24.65413417	     -9.11845747	    -23.82119808	      0.80552061	     -4.89811097	      2.09254462	     -8.74200714	    -20.66528726	     28.93704400	     90.00000001	      0.00000000	      0.00000000	      0.15025039	     -8.91870394	    -20.44257842	     39.02483596	     90.00000001	      0.00000000	      0.00000000
      0.53000000	      9.65971446	      0.98525085	      0.20210059	     -1.46452370	      0.90833281	      0.16718436	     20.37183043	     -3.65649811	     -1.34352376	     58.49989148	      2.90949523	      1.02101572	      9.95272716	    -11.51579232	     -9.02844385	     -2.37018813	      5.70801065	    -20.08932247	     27.45863570	     -4.88563793	      0.47924360	     26.81820160	     26.04270805	     -9.02844385	    -24.15521057	      1.29851277	     -5.18548509	      1.81459495	     -8.74178163	    -21.27383723	     29.01664980	     90.00000001	      0.00000000	      0.00000000	      0.55625723	     -9.09476505	    -19.84765456	     38.97340883	     90.00000001	      0.00000000	      0.00000000
      0.54000000	      9.56983044	      0.84289045	      0.51412104	     -1.45737969	      0.90815580	      0.16703005	     21.05885154	     -3.56307751	     -1.54147306	     55.83858387	      3.12232214	      0.97456714	     10.66908427	     -9.80155583	     -8.97455261	     -2.90458218	      5.46632832	    -20.08379045	     27.27415547	     -4.88402260	      0.47602381	     27.24565688	     26.51561635	     -8.97455261	    -24.15703439	      1.54770442	     -5.45838950	      1.49539873	     -8.72431928	    -21.48860775	     29.06276958	     90.00000001	      0.00000000	      0.00000000	      0.94126740	     -9.21328003	    -19.57800626	     38.93402790	     90.00000001	      0.00000000	      0.00000000
      0.55000000	      9.53115193	      0.70080374	      0.81670772	     -1.45006734	      0.90794828	      0.16697340	     21.60001401	     -3.44139866	     -2.09225907	     53.02564094	      3.02588429	      0.92547202	     11.49525826	     -7.46090237	     -8.91635376	     -3.53639812	      5.17651740	    -20.24436845	     27.03515449	     -4.88592029	      0.47185246	     27.61988239	     27.36363186	     -8.91635376	    -24.19944816	      1.78486314	     -5.68624388	      1.15853440	     -8.67105579	    -21.81496324	     29.11711985	     90.00000001	      0.00000000	      0.00000000	      1.29479980	     -9.31899165	    -19.27566816	     38.95364423	     90.00000001	      0.00000000	      0.00000000
